<svg width="16" height="16" viewBox="0 0 36 36" fill="none" xmlns="http://www.w3.org/2000/svg">
    <path fill-rule="evenodd" clip-rule="evenodd" d="M10.8753 6.99532C12.1799 5.05093 14.4346 3 17.9999 3C21.5653 3 23.8201 5.05093 25.1246 6.99532C26.411 8.91261 26.8877 10.8711 26.9566 11.1714C26.9662 11.2137 26.9731 11.2489 26.9779 11.2731L29.2799 23.1432C29.8186 25.9204 27.6913 28.5 24.8623 28.5H11.1377C8.30867 28.5 6.18137 25.9204 6.71999 23.1432L9.02207 11.2731C9.02677 11.2489 9.03373 11.2137 9.04339 11.1714C9.11212 10.8711 9.58886 8.91261 10.8753 6.99532Z" fill="#323232"/>
    <path d="M12.7703 30C13.1482 30.721 13.727 31.4747 14.6046 32.0508C15.5192 32.6513 16.6694 33 18.0695 33C19.4698 33 20.62 32.6513 21.5347 32.0508C22.4122 31.4747 22.991 30.721 23.3689 30H12.7703Z" fill="#323232"/>
    <path fill-rule="evenodd" clip-rule="evenodd" d="M25.9393 3.43933C25.3536 4.02513 25.3536 4.97487 25.9393 5.56066C27.1785 6.79986 27.8323 8.01417 28.5448 10.8638C28.7457 11.6675 29.56 12.1561 30.3637 11.9552C31.1674 11.7543 31.6561 10.9399 31.4553 10.1362C30.6676 6.98583 29.8215 5.20014 28.0606 3.43933C27.4749 2.85356 26.5251 2.85356 25.9393 3.43933Z" fill="#323232"/>
    <path fill-rule="evenodd" clip-rule="evenodd" d="M10.0605 3.43933C10.6463 4.02513 10.6463 4.97487 10.0605 5.56066C8.82133 6.79986 8.16748 8.01417 7.45507 10.8638C7.25416 11.6675 6.43975 12.1561 5.63607 11.9552C4.83237 11.7543 4.34373 10.9399 4.54465 10.1362C5.33224 6.98583 6.17841 5.20014 7.93921 3.43933C8.52499 2.85356 9.47473 2.85356 10.0605 3.43933Z" fill="#323232"/>
</svg>    
