<svg width="16" height="16" viewBox="0 0 24 30" fill="none" xmlns="http://www.w3.org/2000/svg">
    <path d="M21 0H3C2.20435 0 1.44129 0.31607 0.87868 0.878679C0.31607 1.44129 0 2.20435 0 3V30L4.5 25.5L7.5 30L12 25.5L16.5 30L19.5 25.5L24 30V3C24 2.20435 23.6839 1.44129 23.1213 0.878679C22.5587 0.31607 21.7956 0 21 0ZM12 21H6C5.60218 21 5.22064 20.842 4.93934 20.5607C4.65804 20.2794 4.5 19.8978 4.5 19.5C4.5 19.1022 4.65804 18.7206 4.93934 18.4393C5.22064 18.158 5.60218 18 6 18H12C12.3978 18 12.7794 18.158 13.0607 18.4393C13.342 18.7206 13.5 19.1022 13.5 19.5C13.5 19.8978 13.342 20.2794 13.0607 20.5607C12.7794 20.842 12.3978 21 12 21ZM12 15H6C5.60218 15 5.22064 14.842 4.93934 14.5607C4.65804 14.2794 4.5 13.8978 4.5 13.5C4.5 13.1022 4.65804 12.7206 4.93934 12.4393C5.22064 12.158 5.60218 12 6 12H12C12.3978 12 12.7794 12.158 13.0607 12.4393C13.342 12.7206 13.5 13.1022 13.5 13.5C13.5 13.8978 13.342 14.2794 13.0607 14.5607C12.7794 14.842 12.3978 15 12 15ZM18 21H16.5C16.1022 21 15.7206 20.842 15.4393 20.5607C15.158 20.2794 15 19.8978 15 19.5C15 19.1022 15.158 18.7206 15.4393 18.4393C15.7206 18.158 16.1022 18 16.5 18H18C18.3978 18 18.7794 18.158 19.0607 18.4393C19.342 18.7206 19.5 19.1022 19.5 19.5C19.5 19.8978 19.342 20.2794 19.0607 20.5607C18.7794 20.842 18.3978 21 18 21ZM18 15H16.5C16.1022 15 15.7206 14.842 15.4393 14.5607C15.158 14.2794 15 13.8978 15 13.5C15 13.1022 15.158 12.7206 15.4393 12.4393C15.7206 12.158 16.1022 12 16.5 12H18C18.3978 12 18.7794 12.158 19.0607 12.4393C19.342 12.7206 19.5 13.1022 19.5 13.5C19.5 13.8978 19.342 14.2794 19.0607 14.5607C18.7794 14.842 18.3978 15 18 15ZM18 7.5H6C5.60218 7.5 5.22064 7.34196 4.93934 7.06066C4.65804 6.77935 4.5 6.39782 4.5 6C4.5 5.60217 4.65804 5.22064 4.93934 4.93934C5.22064 4.65804 5.60218 4.5 6 4.5H18C18.3978 4.5 18.7794 4.65804 19.0607 4.93934C19.342 5.22064 19.5 5.60217 19.5 6C19.5 6.39782 19.342 6.77935 19.0607 7.06066C18.7794 7.34196 18.3978 7.5 18 7.5Z" fill="#323232"/>
</svg> 
