<svg width="40" height="40" viewBox="0 0 115 115" fill="none" xmlns="http://www.w3.org/2000/svg">
    <path d="M62.5086 9.11055L8.77273 62.8465C4.19542 67.4238 4.19611 74.8715 8.77328 79.4486L16.4612 87.1366L18.9229 89.5983L21.7085 87.5116C23.3189 86.3052 25.6058 86.4677 27.028 87.8898C28.4491 89.311 28.6122 91.5974 27.4064 93.2071L25.3175 95.9928L27.7804 98.4557L35.4694 106.145C40.0457 110.721 47.4933 110.722 52.0707 106.144L105.807 52.4085C110.384 47.8312 110.383 40.3833 105.807 35.8071L98.1692 28.1692L95.4588 25.4588L92.6248 28.0398C91.0142 29.5064 88.5457 29.4497 87.007 27.911C85.4684 26.3724 85.4118 23.904 86.8785 22.2912L89.4572 19.4572L86.7481 16.7481L79.1111 9.1111C74.5338 4.53379 67.0861 4.53311 62.5086 9.11055ZM83.9081 19.5881C81.0171 22.7654 81.0974 27.6815 84.167 30.7511C87.2367 33.8208 92.1528 33.9011 95.329 31.0091L102.967 38.647C105.982 41.6623 105.982 46.5524 102.966 49.5683L49.2305 103.304C46.2146 106.32 41.3246 106.32 38.3093 103.305L30.6203 95.6156C32.996 92.4456 32.7513 87.9331 29.868 85.0498C26.9848 82.1667 22.4724 81.922 19.3013 84.2966L11.6133 76.6086C8.59702 73.5923 8.59702 68.7022 11.6128 65.6865L65.3487 11.9506C68.3644 8.93485 73.2547 8.93471 76.2709 11.951L83.9081 19.5881Z" fill="#31D55F"/>
    <path d="M50.7699 85.0739L48.8911 86.9527L53.7913 91.8528L55.67 89.9741L50.7699 85.0739Z" fill="#31D55F"/>
    <path d="M42.1603 76.4651L40.2815 78.3439L45.1816 83.2441L47.0604 81.3653L42.1603 76.4651Z" fill="#31D55F"/>
    <path d="M33.5507 67.8553L31.6719 69.7341L36.573 74.6352L38.4518 72.7564L33.5507 67.8553Z" fill="#31D55F"/>
    <path d="M24.9428 59.2477L23.064 61.1265L27.9641 66.0266L29.8429 64.1478L24.9428 59.2477Z" fill="#31D55F"/>
</svg>
